{
  "accessors": [
    {
      "bufferView": 2,
      "componentType": 5126,
      "count": 15134,
      "max": [
        1.1130716800689697,
        2.756798028945923,
        1.1126031875610352
      ],
      "min": [
        -1.3440967798233032,
        -0.09000010043382645,
        -1.1126030683517456
      ],
      "type": "VEC3"
    },
    {
      "bufferView": 2,
      "byteOffset": 181608,
      "componentType": 5126,
      "count": 15134,
      "max": [
        0.9999990463256836,
        1.0,
        1.0
      ],
      "min": [
        -1.0,
        -1.0,
        -1.0
      ],
      "type": "VEC3"
    },
    {
      "bufferView": 1,
      "componentType": 5126,
      "count": 15134,
      "max": [
        0.0,
        1.0
      ],
      "min": [
        0.0,
        1.0
      ],
      "type": "VEC2"
    },
    {
      "bufferView": 1,
      "byteOffset": 121072,
      "componentType": 5126,
      "count": 15134,
      "max": [
        3.587080717086792,
        3.5796360969543457
      ],
      "min": [
        -3.6268978118896484,
        -5.352900981903076
      ],
      "type": "VEC2"
    },
    {
      "bufferView": 0,
      "componentType": 5125,
      "count": 84480,
      "type": "SCALAR"
    },
    {
      "bufferView": 2,
      "byteOffset": 363216,
      "componentType": 5126,
      "count": 40800,
      "max": [
        0.6935800313949585,
        -0.3541224002838135,
        0.9911489486694336
      ],
      "min": [
        -0.6935800313949585,
        -1.3375415802001953,
        -0.9966855049133301
      ],
      "type": "VEC3"
    },
    {
      "bufferView": 2,
      "byteOffset": 852816,
      "componentType": 5126,
      "count": 40800,
      "max": [
        0.9536125659942627,
        1.0,
        0.22406665980815887
      ],
      "min": [
        -0.9536129236221313,
        0.29979977011680603,
        -0.12351763993501663
      ],
      "type": "VEC3"
    },
    {
      "bufferView": 1,
      "byteOffset": 242144,
      "componentType": 5126,
      "count": 40800,
      "max": [
        1.0,
        1.0
      ],
      "min": [
        0.0,
        0.0
      ],
      "type": "VEC2"
    },
    {
      "bufferView": 0,
      "byteOffset": 337920,
      "componentType": 5125,
      "count": 61206,
      "type": "SCALAR"
    }
  ],
  "asset": {
    "extras": {
      "author": "itschemistry2 (https://sketchfab.com/itschemistry2)",
      "license": "CC-BY-4.0 (http://creativecommons.org/licenses/by/4.0/)",
      "source": "https://sketchfab.com/3d-models/beaker-c1560b532f1d4f9f808f4963d6c877c8",
      "title": "beaker"
    },
    "generator": "Sketchfab-16.28.0",
    "version": "2.0"
  },
  "bufferViews": [
    {
      "buffer": 0,
      "byteLength": 582744,
      "name": "floatBufferViews",
      "target": 34963
    },
    {
      "buffer": 0,
      "byteLength": 568544,
      "byteOffset": 582744,
      "byteStride": 8,
      "name": "floatBufferViews",
      "target": 34962
    },
    {
      "buffer": 0,
      "byteLength": 1342416,
      "byteOffset": 1151288,
      "byteStride": 12,
      "name": "floatBufferViews",
      "target": 34962
    }
  ],
  "buffers": [
    {
      "byteLength": 2493704,
      "uri": "scene.bin"
    }
  ],
  "extensionsUsed": [
    "KHR_materials_transmission"
  ],
  "images": [
    {
      "uri": "textures/Material.004_baseColor.png"
    }
  ],
  "materials": [
    {
      "alphaMode": "BLEND",
      "doubleSided": true,
      "extensions": {
        "KHR_materials_transmission": {
          "transmissionFactor": 1.0
        }
      },
      "name": "Material",
      "pbrMetallicRoughness": {
        "baseColorFactor": [
          0.8,
          0.8,
          0.8,
          0.25
        ],
        "metallicFactor": 0.0,
        "roughnessFactor": 0.0
      }
    },
    {
      "alphaMode": "BLEND",
      "doubleSided": true,
      "name": "Material.004",
      "pbrMetallicRoughness": {
        "baseColorTexture": {
          "index": 0
        },
        "metallicFactor": 0.0,
        "roughnessFactor": 0.5
      }
    }
  ],
  "meshes": [
    {
      "name": "Object_0",
      "primitives": [
        {
          "attributes": {
            "NORMAL": 1,
            "POSITION": 0,
            "TEXCOORD_0": 2,
            "TEXCOORD_1": 3
          },
          "indices": 4,
          "material": 0,
          "mode": 4
        }
      ]
    },
    {
      "name": "Object_1",
      "primitives": [
        {
          "attributes": {
            "NORMAL": 6,
            "POSITION": 5,
            "TEXCOORD_0": 7
          },
          "indices": 8,
          "material": 1,
          "mode": 4
        }
      ]
    }
  ],
  "nodes": [
    {
      "children": [
        1
      ],
      "matrix": [
        1.0,
        0.0,
        0.0,
        0.0,
        0.0,
        2.220446049250313e-16,
        -1.0,
        0.0,
        0.0,
        1.0,
        2.220446049250313e-16,
        0.0,
        0.0,
        0.0,
        0.0,
        1.0
      ],
      "name": "Sketchfab_model"
    },
    {
      "children": [
        2
      ],
      "name": "root"
    },
    {
      "children": [
        3,
        5
      ],
      "matrix": [
        1.0,
        0.0,
        0.0,
        0.0,
        0.0,
        2.220446049250313e-16,
        1.0,
        0.0,
        0.0,
        -1.0,
        2.220446049250313e-16,
        0.0,
        0.0,
        0.0,
        0.0,
        1.0
      ],
      "name": "GLTF_SceneRootNode"
    },
    {
      "children": [
        4
      ],
      "matrix": [
        2.9500019550323486,
        0.0,
        0.0,
        0.0,
        0.0,
        2.9500019550323486,
        0.0,
        0.0,
        0.0,
        0.0,
        2.9500019550323486,
        0.0,
        0.0,
        0.3306465744972229,
        0.0,
        1.0
      ],
      "name": "Circle_0"
    },
    {
      "mesh": 0,
      "name": "Object_4"
    },
    {
      "children": [
        6
      ],
      "matrix": [
        2.8679754734039307,
        0.0,
        0.0,
        0.0,
        0.0,
        0.0,
        0.7809194922447205,
        0.0,
        0.0,
        -3.1220405101776123,
        0.0,
        0.0,
        0.0,
        4.350691795349121,
        3.514543056488037,
        1.0
      ],
      "name": "Plane_1"
    },
    {
      "mesh": 1,
      "name": "Object_6"
    }
  ],
  "samplers": [
    {
      "magFilter": 9729,
      "minFilter": 9987,
      "wrapS": 33071,
      "wrapT": 33071
    }
  ],
  "scene": 0,
  "scenes": [
    {
      "name": "Sketchfab_Scene",
      "nodes": [
        0
      ]
    }
  ],
  "textures": [
    {
      "sampler": 0,
      "source": 0
    }
  ]
}
